<svg width="25" height="25" viewBox="0 0 25 25" fill="none" xmlns="http://www.w3.org/2000/svg">
<path opacity="0.5" d="M14.5842 7.29199C14.5842 7.86729 15.0503 8.33366 15.6254 8.33366C16.2004 8.33366 16.6666 7.86729 16.6666 7.29199V6.25032C16.6666 3.94914 14.8019 2.08366 12.5017 2.08366H6.25535C3.95517 2.08366 2.0905 3.94914 2.0905 6.25032L2.0905 18.7503C2.0905 21.0515 3.95517 22.917 6.25535 22.917H12.509C14.8092 22.917 16.6738 21.0515 16.6738 18.7503V17.7087C16.6738 17.1334 16.2077 16.667 15.6326 16.667C15.0576 16.667 14.5914 17.1334 14.5914 17.7087V18.7503C14.5914 19.9009 13.6591 20.8337 12.509 20.8337H6.25535C5.10526 20.8337 4.17292 19.9009 4.17292 18.7503L4.17292 6.25032C4.17292 5.09973 5.10526 4.16699 6.25535 4.16699H12.5017C13.6518 4.16699 14.5842 5.09973 14.5842 6.25032V7.29199Z" fill="#90CEDE"/>
<rect opacity="0.5" x="20.834" y="11.458" width="2.08333" height="12.5" rx="1" transform="rotate(90 20.834 11.458)" fill="#90CEDE"/>
<path d="M18.0141 10.1119C17.6073 9.7051 17.6073 9.04555 18.0141 8.63876C18.4209 8.23196 19.0804 8.23196 19.4872 8.63876L22.6122 11.7638C23.019 12.1706 23.019 12.8301 22.6122 13.2369L19.4872 16.3619C19.0804 16.7687 18.4209 16.7687 18.0141 16.3619C17.6073 15.9551 17.6073 15.2956 18.0141 14.8888L20.4025 12.5003L18.0141 10.1119Z" fill="#90CEDE"/>
</svg>
