<svg width="25" height="25" viewBox="0 0 25 25" fill="none" xmlns="http://www.w3.org/2000/svg">
<path opacity="0.5" d="M12.5007 11.4583C10.1995 11.4583 8.33398 9.59285 8.33398 7.29167C8.33398 4.99048 10.1995 3.125 12.5007 3.125C14.8018 3.125 16.6673 4.99048 16.6673 7.29167C16.6673 9.59285 14.8018 11.4583 12.5007 11.4583Z" fill="#90CEDE"/>
<path d="M3.12568 21.0402C3.52944 16.0686 7.56449 13.541 12.4826 13.541C17.47 13.541 21.5676 15.9298 21.8728 21.041C21.885 21.2446 21.8728 21.8743 21.0903 21.8743C17.2303 21.8743 11.4945 21.8743 3.88281 21.8743C3.62158 21.8743 3.10369 21.311 3.12568 21.0402Z" fill="#90CEDE"/>
</svg>
