<svg width="21" height="20" viewBox="0 0 21 20" fill="none" xmlns="http://www.w3.org/2000/svg">
<path fill-rule="evenodd" clip-rule="evenodd" d="M1.00391 6.26571C0.382903 6.62238 0 7.28387 0 8.00001V18.0001C0 19.1047 0.895428 20.0001 2 20.0001H19C20.1045 20.0001 21 19.1047 21 18.0001V8.00001C21 7.28387 20.6171 6.62238 19.9961 6.26571L10.998 1.09769C10.6896 0.92056 10.3103 0.920561 10.0019 1.09769L1.00391 6.26571ZM8 11.0003C7.44771 11.0003 7 11.448 7 12.0003V16.0003C7 16.5526 7.44771 17.0003 8 17.0003H13C13.5523 17.0003 14 16.5526 14 16.0003V12.0003C14 11.448 13.5523 11.0003 13 11.0003H8Z" fill="#90CEDE"/>
</svg>
