<svg width="25" height="25" viewBox="0 0 25 25" fill="none" xmlns="http://www.w3.org/2000/svg">
<path fill-rule="evenodd" clip-rule="evenodd" d="M7.68536 7.9246C8.08753 8.27926 8.10671 8.87225 7.7282 9.24908L4.37325 12.5891L7.7282 15.9291C8.10671 16.3059 8.08753 16.8989 7.68536 17.2536C7.28319 17.6082 6.65031 17.5903 6.2718 17.2134L2.2718 13.2313C1.9094 12.8705 1.9094 12.3077 2.2718 11.9469L6.2718 7.96473C6.65031 7.5879 7.28319 7.56993 7.68536 7.9246ZM17.3146 7.9246C16.9125 8.27926 16.8933 8.87225 17.2718 9.24908L20.6268 12.5891L17.2718 15.9291C16.8933 16.3059 16.9125 16.8989 17.3146 17.2536C17.7168 17.6082 18.3497 17.5903 18.7282 17.2134L22.7282 13.2313C23.0906 12.8705 23.0906 12.3077 22.7282 11.9469L18.7282 7.96473C18.3497 7.5879 17.7168 7.56993 17.3146 7.9246Z" fill="#90CEDE"/>
<rect opacity="1" width="1.90705" height="15.0425" rx="0.953523" transform="matrix(0.966965 0.254909 -0.262781 0.964856 13.5547 5)" fill="#90CEDE"/>
</svg>
