<svg width="25" height="25" viewBox="0 0 25 25" fill="none" xmlns="http://www.w3.org/2000/svg">
<path opacity="0.5" fill-rule="evenodd" clip-rule="evenodd" d="M6.20898 8.33398C5.6567 8.33398 5.20898 8.7817 5.20898 9.33398V15.6673C5.20898 16.2196 5.6567 16.6673 6.20898 16.6673H6.29232C6.8446 16.6673 7.29232 16.2196 7.29232 15.6673L7.29232 13.5423H15.6257C17.9268 13.5423 19.7923 11.6768 19.7923 9.37565V8.33398H17.709V9.37565C17.709 10.5262 16.7762 11.459 15.6257 11.459H7.29232L7.29232 9.33398C7.29232 8.7817 6.8446 8.33398 6.29232 8.33398H6.20898Z" fill="#90CEDE"/>
<path fill-rule="evenodd" clip-rule="evenodd" d="M2.08398 19.7917C2.08398 22.0929 3.94946 23.9583 6.25065 23.9583C8.55184 23.9583 10.4173 22.0929 10.4173 19.7917C10.4173 17.4905 8.55184 15.625 6.25065 15.625C3.94946 15.625 2.08398 17.4905 2.08398 19.7917ZM8.33399 19.7917C8.33399 20.9423 7.40125 21.875 6.25065 21.875C5.10006 21.875 4.16732 20.9423 4.16732 19.7917C4.16732 18.6411 5.10006 17.7083 6.25065 17.7083C7.40125 17.7083 8.33399 18.6411 8.33399 19.7917Z" fill="#90CEDE"/>
<path fill-rule="evenodd" clip-rule="evenodd" d="M14.584 5.20768C14.584 7.50887 16.4495 9.37435 18.7507 9.37435C21.0518 9.37435 22.9173 7.50887 22.9173 5.20768C22.9173 2.9065 21.0518 1.04102 18.7507 1.04102C16.4495 1.04102 14.584 2.9065 14.584 5.20768ZM20.834 5.20769C20.834 6.35829 19.9012 7.29103 18.7507 7.29103C17.6001 7.29103 16.6673 6.35829 16.6673 5.20769C16.6673 4.0571 17.6001 3.12436 18.7507 3.12436C19.9012 3.12436 20.834 4.0571 20.834 5.20769Z" fill="#90CEDE"/>
<path fill-rule="evenodd" clip-rule="evenodd" d="M2.08398 5.20768C2.08398 7.50887 3.94946 9.37435 6.25065 9.37435C8.55184 9.37435 10.4173 7.50887 10.4173 5.20768C10.4173 2.9065 8.55184 1.04102 6.25065 1.04102C3.94946 1.04102 2.08398 2.9065 2.08398 5.20768ZM8.33399 5.20769C8.33399 6.35829 7.40125 7.29103 6.25065 7.29103C5.10006 7.29103 4.16732 6.35829 4.16732 5.20769C4.16732 4.0571 5.10006 3.12436 6.25065 3.12436C7.40125 3.12436 8.33399 4.0571 8.33399 5.20769Z" fill="#90CEDE"/>
</svg>
