<svg width="20" height="20" viewBox="0 0 20 20" fill="none" xmlns="http://www.w3.org/2000/svg">
<path d="M17.5742 4.01425C18.1392 4.60381 18.1484 5.55665 17.595 6.15804L10.8157 13.5249C10.5464 13.8176 10.1767 13.9868 9.78784 13.9953L6.9376 14.0577L6.99771 11.068C7.00569 10.6715 7.16075 10.2936 7.43026 10.014L14.362 2.82219C14.9357 2.227 15.8627 2.22839 16.4348 2.82529L17.5742 4.01425Z" fill="#314F57"/>
<path opacity="0.4" d="M10.7493 1.66602C11.2096 1.66602 11.5827 2.03911 11.5827 2.49935C11.5827 2.95959 11.2096 3.33268 10.7493 3.33268H4.99935C4.07887 3.33268 3.33268 4.07887 3.33268 4.99935V14.9993C3.33268 15.9198 4.07887 16.666 4.99935 16.666H14.9993C15.9198 16.666 16.666 15.9198 16.666 14.9993V10.8327C16.666 10.3724 17.0391 9.99935 17.4993 9.99935C17.9596 9.99935 18.3327 10.3724 18.3327 10.8327V14.9993C18.3327 16.8403 16.8403 18.3327 14.9993 18.3327H4.99935C3.1584 18.3327 1.66602 16.8403 1.66602 14.9993V4.99935C1.66602 3.1584 3.1584 1.66602 4.99935 1.66602H10.7493Z" fill="#314F57"/>
</svg>
